<svg width="45" height="46" viewBox="0 0 45 46" fill="none" xmlns="http://www.w3.org/2000/svg">
<g clip-path="url(#clip0_1_5)">
<path d="M4.5 1.29C4.78 1.98333 4.72667 2.59667 4.34 3.13C4.26139 3.23799 4.1414 3.32126 3.99321 3.37066C3.84503 3.42005 3.67437 3.43367 3.5 3.41C2.36667 3.27 1.38 3.55 0.540001 4.25" stroke="#EFD00A" stroke-width="2"/>
<path d="M32.54 10.75L32.29 11.25" stroke="#7A9F9E" stroke-width="2"/>
<path d="M32.29 11.25L29.04 10.64C28.9296 10.618 28.8064 10.5421 28.682 10.4196C28.5577 10.297 28.4365 10.1319 28.33 9.94C28.1767 9.65333 28.2067 9.39667 28.42 9.17C28.5307 9.05093 28.5938 8.89499 28.5974 8.73125C28.6011 8.5675 28.5452 8.40712 28.44 8.28C28.2 7.98667 27.8867 7.79667 27.5 7.71" stroke="#5074A5" stroke-width="2"/>
<path d="M27.5 7.71C27 7.05 26.35 6.67333 25.55 6.58C25.3999 6.5633 25.2493 6.60111 25.1274 6.68608C25.0054 6.77106 24.9208 6.89717 24.89 7.04C24.7433 7.72667 25.1133 8.22667 26 8.54" stroke="#91BEC7" stroke-width="2"/>
<path d="M26 8.54L25.75 9.46" stroke="#5074A5" stroke-width="2"/>
<path d="M25.75 9.46C23.31 9.88 31.8 16.23 25.65 18.03C25.4599 18.0861 25.29 18.1611 25.1532 18.2494C25.0164 18.3377 24.9162 18.4371 24.86 18.54C24.64 18.9467 24.8533 19.1967 25.5 19.29" stroke="#7A9F9E" stroke-width="2"/>
<path d="M17 18.79C17.9667 18.2567 18.9733 18.1133 20.02 18.36C20.2379 18.4108 20.5243 18.5969 20.82 18.88C21.2533 19.2867 21.66 19.2433 22.04 18.75" stroke="#5074A5" stroke-width="2"/>
<path d="M22.04 18.75C22.8333 19.47 23.4067 19.48 23.76 18.78C23.8282 18.6443 23.861 18.4893 23.8558 18.3277C23.8506 18.1661 23.8075 18.0024 23.73 17.85L21.8 14.13" stroke="#7A9F9E" stroke-width="2"/>
<path d="M21.8 14.13C23.33 11.21 26.31 6.28 21.33 5.64" stroke="#9CB9A7" stroke-width="2"/>
<path d="M21.33 5.64C20.3033 4.96667 19.1233 4.75333 17.79 5" stroke="#5074A5" stroke-width="2"/>
<path d="M17.79 5C16.8233 3.82667 15.7967 3.74333 14.71 4.75" stroke="#91BEC7" stroke-width="2"/>
<path d="M14.71 4.75L13.79 5" stroke="#5074A5" stroke-width="2"/>
<path d="M13.79 5L13 4.71" stroke="#91BEC7" stroke-width="2"/>
<path d="M21.33 5.64C22.6833 7.27333 22.7533 8.94667 21.54 10.66" stroke="#86B0BD" stroke-width="2"/>
<path d="M21.54 10.66C19.5133 10.8 17.9267 10.0433 16.78 8.39C16.5677 8.08083 16.2836 7.86414 15.98 7.78C15.12 7.54 14.8 7.86 15.02 8.74C15.0486 8.85104 15.1283 8.97205 15.2521 9.09237C15.3759 9.21269 15.54 9.32864 15.73 9.43C16.2033 9.67667 16.5567 10.0333 16.79 10.5" stroke="#6496B4" stroke-width="2"/>
<path d="M16.79 10.5C15.7367 11.5467 15.89 12.0333 17.25 11.96" stroke="#4495CE" stroke-width="2"/>
<path d="M17.25 11.96C19.61 15.67 14.64 14.99 15 16.55C15.0288 16.6829 15.1156 16.8046 15.2473 16.8967C15.3791 16.9887 15.5485 17.046 15.73 17.06C17.3833 17.1933 18.4033 16.5933 18.79 15.26C19.2433 13.6733 19.6567 13.72 20.03 15.4C20.0619 15.5456 20.1262 15.6854 20.219 15.8109C20.3118 15.9364 20.4312 16.0449 20.57 16.13C21.51 16.6967 22 17.57 22.04 18.75" stroke="#6496B4" stroke-width="2"/>
<path d="M13.5 16.79C15.11 14.93 9.95 13.71 8.75 13.29" stroke="#4495CE" stroke-width="2"/>
<path d="M8.75 13.29C11.33 12.7567 11.9967 11.4233 10.75 9.29" stroke="#465580" stroke-width="2"/>
<path d="M10.75 9.29C12.8 7.13 7.01 7.68 9.5 9.21" stroke="#4495CE" stroke-width="2"/>
<path d="M9.5 9.21L8 10.04" stroke="#465580" stroke-width="2"/>
<path d="M8 10.04L6.79 8.75" stroke="#4495CE" stroke-width="2"/>
<path d="M21.8 14.13C21.0467 13.71 20.55 12.9967 20.31 11.99C20.2737 11.8321 20.2768 11.6703 20.319 11.5209C20.3612 11.3716 20.4409 11.2401 20.55 11.14C20.8433 10.8733 21.1733 10.7133 21.54 10.66" stroke="#AFDBB6" stroke-width="2"/>
<path d="M27.5 7.71L26 8.54" stroke="#7BB5DD" stroke-width="2"/>
<path d="M17.25 11.96L16.79 10.5" stroke="#6EC0C7" stroke-width="2"/>
<path d="M32.29 11.25C32.3233 12.4567 31.81 13.1867 30.75 13.44C30.552 13.4864 30.3737 13.5559 30.2295 13.6428C30.0853 13.7297 29.9792 13.8315 29.92 13.94C29.5333 14.6533 29.7067 15.1167 30.44 15.33C30.5451 15.3616 30.6887 15.3628 30.8601 15.3333C31.0316 15.3039 31.2264 15.2446 31.43 15.16C32.5767 14.68 33.4467 13.8933 34.04 12.8C34.2467 12.4267 34.4667 12.4467 34.7 12.86C35.12 13.5733 35.6367 14.1333 36.25 14.54" stroke="#6496B4" stroke-width="2"/>
<path d="M36.25 14.54C37.0833 16.2667 37 17.9067 36 19.46" stroke="#5074A5" stroke-width="2"/>
<path d="M32.75 19.46C32.5167 18.1467 31.8233 17.2733 30.67 16.84C30.6095 16.8175 30.5446 16.8089 30.4805 16.8149C30.4165 16.8209 30.3551 16.8413 30.3015 16.8744C30.2479 16.9076 30.2035 16.9525 30.172 17.0056C30.1404 17.0587 30.1226 17.1185 30.12 17.18C30.06 18.0333 30.3533 18.7933 31 19.46" stroke="#6496B4" stroke-width="2"/>
<path d="M27.46 19.55C30.0133 15.69 29.4433 12.3267 25.75 9.46" stroke="#6496B4" stroke-width="2"/>
<path d="M42 13.04C39.88 12.74 37.9633 13.24 36.25 14.54" stroke="#7A9F9E" stroke-width="2"/>
<path d="M17.79 5C16.25 6.97333 15.2233 6.89 14.71 4.75" stroke="#7BB5DD" stroke-width="2"/>
<path d="M13.79 5L14.03 8.01C14.11 9.03667 13.79 9.19333 13.07 8.48C11.2967 6.73333 9.66667 6.70333 8.18 8.39C8.08226 8.50303 7.95747 8.59373 7.8142 8.65587C7.67093 8.71802 7.51257 8.75013 7.35 8.75H6.79" stroke="#7BB5DD" stroke-width="2"/>
<path d="M6.79 8.75L6.46 7.5" stroke="#85DFF0" stroke-width="2"/>
<path d="M8 10.04C7.4 11.3667 7.65 12.45 8.75 13.29" stroke="#507E93" stroke-width="2"/>
<path d="M10.75 9.29L9.5 9.21" stroke="#507E93" stroke-width="2"/>
<path d="M36.75 38.21C36.3633 37.51 36.2533 36.77 36.42 35.99C36.5067 35.5967 36.5133 35.2733 36.44 35.02C36 33.4667 35.1533 32.1733 33.9 31.14" stroke="#B74932" stroke-width="2"/>
<path d="M33.9 31.14C32.91 30.16 30.58 32.65 29.75 33.29" stroke="#CB7F1D" stroke-width="2"/>
<path d="M29.75 33.29H29.25" stroke="#B74932" stroke-width="2"/>
<path d="M29.25 33.29C28.79 31.2167 27.5533 29.9533 25.54 29.5" stroke="#BF5227" stroke-width="2"/>
<path d="M25.54 29.5L24.75 29.21" stroke="#B74932" stroke-width="2"/>
<path d="M24.75 29.21C24.5567 27.93 23.9733 26.8733 23 26.04" stroke="#D27E33" stroke-width="2"/>
<path d="M23 26.04C21.7333 24.0267 20.08 23.5133 18.04 24.5" stroke="#D1482A" stroke-width="2"/>
<path d="M18.04 24.5C17.18 23.8533 16.25 23.7833 15.25 24.29" stroke="#DCA320" stroke-width="2"/>
<path d="M15.25 24.29L14.5 24.54" stroke="#D1482A" stroke-width="2"/>
<path d="M14.5 24.54L14.21 24" stroke="#DB9B56" stroke-width="2"/>
<path d="M14.75 31.29L13.6 29.05C13.38 28.61 13.2 28.33 13.06 28.21C11.5933 26.9033 10.0833 26.8467 8.53 28.04C8.43505 28.1121 8.36554 28.2319 8.33 28.3847C8.29446 28.5375 8.29446 28.7166 8.33 28.9C8.67667 30.7733 8.16333 31.0567 6.79 29.75" stroke="#E29B4B" stroke-width="2"/>
<path d="M24.75 29.21L22.74 34.07C22.6965 34.1725 22.6821 34.2988 22.6977 34.4391C22.7133 34.5795 22.7585 34.7303 22.83 34.88L24.16 37.62" stroke="#D07432" stroke-width="2"/>
<path d="M24.16 37.62L19.68 34.49C19.6331 34.4573 19.5794 34.4356 19.523 34.4265C19.4666 34.4174 19.4088 34.4212 19.354 34.4375C19.2992 34.4539 19.2488 34.4824 19.2066 34.5209C19.1643 34.5594 19.1313 34.607 19.11 34.66C18.33 36.6533 17.05 37.07 15.27 35.91" stroke="#D97E28" stroke-width="2"/>
<path d="M33.9 31.14C33.59 32.66 30.48 35.71 29.75 33.29" stroke="#CA761C" stroke-width="2"/>
<path d="M24.16 37.62C27.5667 37.26 28.7967 35.7333 27.85 33.04C27.33 31.56 26.04 31.17 25.54 29.5" stroke="#BE4927" stroke-width="2"/>
<path d="M29.25 33.29C29.35 34.2233 29.2633 35.1167 28.99 35.97C28.8967 36.2567 28.9833 36.34 29.25 36.22C30.93 35.4667 32.0967 36.0467 32.75 37.96" stroke="#BE4927" stroke-width="2"/>
<path d="M23 26.04C23.5133 28.9867 22.77 31.25 20.77 32.83C20.05 33.4033 19.6233 33.2067 19.49 32.24C19.2433 30.4667 18.4833 28.99 17.21 27.81C17.0818 27.691 16.9231 27.6082 16.7494 27.5696C16.5757 27.531 16.3932 27.538 16.22 27.59C14.51 28.12 17.02 29.97 17.47 30.42C17.5831 30.5338 17.6556 30.6841 17.6772 30.8493C17.6987 31.0145 17.6682 31.1863 17.59 31.34C17.1833 32.1267 17.34 32.73 18.06 33.15C18.1676 33.215 18.237 33.3364 18.2537 33.489C18.2705 33.6417 18.2334 33.8139 18.15 33.97C17.6433 34.8833 16.6833 35.53 15.27 35.91" stroke="#EA742B" stroke-width="2"/>
<path d="M15.27 35.91C14.15 34.73 13.9767 33.19 14.75 31.29" stroke="#D8481F" stroke-width="2"/>
<path d="M14.75 31.29C15.0033 29.0367 14.92 26.7867 14.5 24.54" stroke="#F4914E" stroke-width="2"/>
<path d="M15.25 24.29C14.24 26.53 17.64 26.9 18.04 24.5" stroke="#F49918" stroke-width="2"/>
<path d="M19.7015 6.2605C19.5682 6.11651 19.3831 6.03138 19.187 6.02384C18.9909 6.0163 18.7998 6.08697 18.6558 6.2203L18.3036 6.5464C18.2323 6.61243 18.1747 6.69185 18.1341 6.78014C18.0935 6.86843 18.0706 6.96386 18.0669 7.06097C18.0632 7.15809 18.0786 7.25498 18.1123 7.34613C18.146 7.43728 18.1974 7.52089 18.2634 7.5922L19.4185 8.8395C19.5518 8.98349 19.7369 9.06862 19.933 9.07616C20.1291 9.0837 20.3202 9.01303 20.4642 8.8797L20.8164 8.5536C20.8877 8.48757 20.9453 8.40815 20.9859 8.31986C21.0266 8.23156 21.0494 8.13614 21.0531 8.03903C21.0568 7.94191 21.0414 7.84502 21.0077 7.75387C20.974 7.66272 20.9226 7.5791 20.8566 7.5078L19.7015 6.2605Z" stroke="#4495CE" stroke-width="2"/>
<path d="M9.78 29.2C10.63 29.18 12.81 30.3 12.91 29.83C12.9739 29.5226 12.9168 29.2026 12.7508 28.9376C12.5847 28.6726 12.3226 28.4834 12.02 28.41C9.94667 27.91 8.97333 28.0267 9.1 28.76C9.12171 28.8853 9.20228 28.9987 9.32708 29.0794C9.45187 29.1602 9.61258 29.2029 9.78 29.2Z" stroke="#E29B4B" stroke-width="2"/>
<path d="M4.5 1.29C4.78 1.98333 4.72667 2.59667 4.34 3.13C4.26139 3.23799 4.1414 3.32126 3.99321 3.37066C3.84502 3.42005 3.67437 3.43367 3.5 3.41C2.36667 3.27 1.38 3.55 0.539999 4.25C0.366666 1.33 1.68667 0.343333 4.5 1.29Z" fill="#FFF30D"/>
<path d="M4.5 1.29C6.16 2.69667 6.26333 4.13 4.81 5.59C4.66895 5.73433 4.55406 5.88394 4.473 6.0288C4.39194 6.17367 4.3466 6.31045 4.34 6.43L4.25 8.96C4.25 10.6238 4.13 9.76466 4.34 11.2709C4.28 11.9042 4.37 12.4867 4.37 13.06C4.41 23.4733 4.35 33.8967 4.19 44.33C4.18724 44.5075 4.13967 44.677 4.05745 44.8022C3.97523 44.9274 3.86489 44.9984 3.75 45H2.5C2.36739 45 2.24022 44.9473 2.14645 44.8536C2.05268 44.7598 2 44.6326 2 44.5V6.5C2.00012 6.37546 1.96415 6.24496 1.89483 6.11846C1.82551 5.99195 1.72468 5.87277 1.6 5.77C1.08667 5.35667 0.733334 4.85 0.540001 4.25C1.38 3.55 2.36667 3.27 3.5 3.41C3.67437 3.43367 3.84503 3.42005 3.99321 3.37066C4.1414 3.32126 4.26139 3.23799 4.34 3.13C4.72667 2.59667 4.78 1.98333 4.5 1.29Z" fill="#DEAC07"/>
<path d="M32.54 10.75L32.29 11.25L29.04 10.64C28.9296 10.618 28.8064 10.5421 28.682 10.4196C28.5577 10.297 28.4365 10.1319 28.33 9.94C28.1767 9.65333 28.2067 9.39667 28.42 9.17C28.5307 9.05093 28.5938 8.89499 28.5974 8.73125C28.6011 8.5675 28.5452 8.40712 28.44 8.28C28.2 7.98667 27.8867 7.79667 27.5 7.71C27 7.05 26.35 6.67333 25.55 6.58C25.3999 6.5633 25.2493 6.60111 25.1273 6.68608C25.0054 6.77106 24.9208 6.89717 24.89 7.04C24.7433 7.72667 25.1133 8.22667 26 8.54L25.75 9.46C23.31 9.88 31.8 16.23 25.65 18.03C25.4599 18.0861 25.29 18.1611 25.1532 18.2494C25.0164 18.3377 24.9162 18.4371 24.86 18.54C24.64 18.9467 24.8533 19.1967 25.5 19.29C22.58 20.7567 19.7467 20.59 17 18.79C17.9667 18.2567 18.9733 18.1133 20.02 18.36C20.2379 18.4108 20.5243 18.5969 20.82 18.88C21.2533 19.2867 21.66 19.2433 22.04 18.75C22.8333 19.47 23.4067 19.48 23.76 18.78C23.8282 18.6443 23.861 18.4893 23.8558 18.3277C23.8506 18.1661 23.8075 18.0024 23.73 17.85L21.8 14.13C23.33 11.21 26.31 6.28 21.33 5.64C20.3033 4.96667 19.1233 4.75333 17.79 5C16.8233 3.82667 15.7967 3.74333 14.71 4.75L13.79 5L13 4.71C13.6 4.23 13.91 3.56 13.93 2.7C13.9567 1.68 14.9767 1.28 16.99 1.5C21.29 1.97 28.04 4.58 29.97 8.86C30.1137 9.16653 30.3292 9.41677 30.59 9.58L32.54 10.75Z" fill="#667D8F"/>
<path d="M17.79 5C16.25 6.97333 15.2233 6.89 14.71 4.75C15.7967 3.74333 16.8233 3.82667 17.79 5Z" fill="#BCFFFE"/>
<path d="M13 4.71L13.79 5L14.03 8.01C14.11 9.03667 13.79 9.19333 13.07 8.48C11.2967 6.73333 9.66667 6.70333 8.18 8.39C8.08226 8.50303 7.95747 8.59373 7.81419 8.65587C7.67092 8.71802 7.51257 8.75013 7.35 8.75H6.79L6.46 7.5C8.46 6.15333 10.64 5.22333 13 4.71Z" fill="#BCFFFE"/>
<path d="M14.71 4.75C15.2233 6.89 16.25 6.97333 17.79 5C19.1233 4.75333 20.3033 4.96667 21.33 5.64C22.6833 7.27333 22.7533 8.94667 21.54 10.66C19.5133 10.8 17.9267 10.0433 16.78 8.39C16.5677 8.08083 16.2836 7.86414 15.98 7.78C15.12 7.54 14.8 7.86 15.02 8.74C15.0486 8.85104 15.1283 8.97205 15.2521 9.09237C15.3759 9.21269 15.54 9.32864 15.73 9.43C16.2033 9.67667 16.5567 10.0333 16.79 10.5C15.7367 11.5467 15.89 12.0333 17.25 11.96C19.61 15.67 14.64 14.99 15 16.55C15.0288 16.6829 15.1156 16.8046 15.2473 16.8967C15.3791 16.9887 15.5485 17.046 15.73 17.06C17.3833 17.1933 18.4033 16.5933 18.79 15.26C19.2433 13.6733 19.6567 13.72 20.03 15.4C20.0619 15.5456 20.1262 15.6854 20.219 15.8109C20.3118 15.9364 20.4312 16.0449 20.57 16.13C21.51 16.6967 22 17.57 22.04 18.75C21.66 19.2433 21.2533 19.2867 20.82 18.88C20.5243 18.5969 20.2379 18.4108 20.02 18.36C18.9733 18.1133 17.9667 18.2567 17 18.79C15.6533 18.4433 14.4867 17.7767 13.5 16.79C15.11 14.93 9.95 13.71 8.75 13.29C11.33 12.7567 11.9967 11.4233 10.75 9.29C12.8 7.13 7.01 7.68 9.5 9.21L8 10.04L6.79 8.75H7.35C7.51257 8.75013 7.67093 8.71802 7.8142 8.65587C7.95747 8.59373 8.08226 8.50303 8.18 8.39C9.66667 6.70333 11.2967 6.73333 13.07 8.48C13.79 9.19333 14.11 9.03667 14.03 8.01L13.79 5L14.71 4.75ZM19.7015 6.2605C19.5682 6.11651 19.3831 6.03138 19.187 6.02384C18.9909 6.0163 18.7998 6.08697 18.6558 6.2203L18.3036 6.5464C18.2323 6.61243 18.1747 6.69185 18.1341 6.78014C18.0935 6.86843 18.0706 6.96386 18.0669 7.06097C18.0632 7.15809 18.0786 7.25498 18.1123 7.34613C18.146 7.43728 18.1974 7.52089 18.2634 7.5922L19.4185 8.8395C19.5518 8.98349 19.7369 9.06862 19.933 9.07616C20.1291 9.0837 20.3202 9.01303 20.4642 8.8797L20.8164 8.5536C20.8877 8.48757 20.9453 8.40815 20.9859 8.31986C21.0266 8.23157 21.0494 8.13614 21.0531 8.03903C21.0568 7.94191 21.0414 7.84502 21.0077 7.75387C20.974 7.66272 20.9226 7.57911 20.8566 7.5078L19.7015 6.2605Z" fill="#3A6BBB"/>
<path d="M21.33 5.64C26.31 6.28 23.33 11.21 21.8 14.13C21.0467 13.71 20.55 12.9967 20.31 11.99C20.2737 11.8321 20.2768 11.6703 20.319 11.5209C20.3612 11.3716 20.4409 11.2401 20.55 11.14C20.8433 10.8733 21.1733 10.7133 21.54 10.66C22.7533 8.94667 22.6833 7.27333 21.33 5.64Z" fill="#D1F5BE"/>
<path d="M18.6558 6.2203L18.3036 6.54644C18.0037 6.82412 17.9857 7.29231 18.2634 7.59218L19.4185 8.83952C19.6962 9.13939 20.1643 9.15738 20.4642 8.8797L20.8164 8.55356C21.1163 8.27588 21.1343 7.80769 20.8566 7.50782L19.7015 6.26048C19.4238 5.96061 18.9557 5.94262 18.6558 6.2203Z" fill="#4EBFE2" fill-opacity="0.996"/>
<path d="M27.5 7.71L26 8.54C25.1133 8.22667 24.7433 7.72667 24.89 7.04C24.9208 6.89717 25.0054 6.77106 25.1274 6.68608C25.2493 6.60111 25.3999 6.5633 25.55 6.58C26.35 6.67333 27 7.05 27.5 7.71Z" fill="#BCFFFE"/>
<path d="M6.46 7.5L6.79 8.75L8 10.04C7.4 11.3667 7.65 12.45 8.75 13.29C9.95 13.71 15.11 14.93 13.5 16.79L7.39 14.68C7.1862 14.6097 6.99456 14.5103 6.82618 14.3876C6.6578 14.2649 6.51603 14.1212 6.40908 13.965C6.30212 13.8087 6.23211 13.643 6.20308 13.4774C6.17406 13.3117 6.18661 13.1495 6.24 13C6.75333 11.5733 6.63 10.2067 5.87 8.9C5.7817 8.74462 5.70821 8.59098 5.66385 8.46898C5.61949 8.34698 5.60742 8.26535 5.63 8.24L6.46 7.5Z" fill="#4EBFE2" fill-opacity="0.996"/>
<path d="M21.54 10.66C21.1733 10.7133 20.8433 10.8733 20.55 11.14C20.4409 11.2401 20.3612 11.3716 20.319 11.5209C20.2768 11.6703 20.2737 11.8321 20.31 11.99C20.55 12.9967 21.0467 13.71 21.8 14.13L23.73 17.85C23.8075 18.0024 23.8506 18.1661 23.8558 18.3277C23.861 18.4893 23.8282 18.6443 23.76 18.78C23.4067 19.48 22.8333 19.47 22.04 18.75C22 17.57 21.51 16.6967 20.57 16.13C20.4312 16.0449 20.3118 15.9364 20.219 15.8109C20.1262 15.6854 20.0619 15.5456 20.03 15.4C19.6567 13.72 19.2433 13.6733 18.79 15.26C18.4033 16.5933 17.3833 17.1933 15.73 17.06C15.5485 17.046 15.3791 16.9887 15.2473 16.8967C15.1156 16.8046 15.0288 16.6829 15 16.55C14.64 14.99 19.61 15.67 17.25 11.96L16.79 10.5C16.5567 10.0333 16.2033 9.67667 15.73 9.43C15.54 9.32864 15.3759 9.21269 15.2521 9.09237C15.1283 8.97205 15.0486 8.85104 15.02 8.74C14.8 7.86 15.12 7.54 15.98 7.78C16.2836 7.86414 16.5677 8.08083 16.78 8.39C17.9267 10.0433 19.5133 10.8 21.54 10.66Z" fill="#8DC1AD"/>
<path d="M27.5 7.71C27.8867 7.79667 28.2 7.98667 28.44 8.28C28.5452 8.40712 28.6011 8.5675 28.5974 8.73125C28.5938 8.89499 28.5307 9.05093 28.42 9.17C28.2067 9.39667 28.1767 9.65333 28.33 9.94C28.4365 10.1319 28.5577 10.297 28.682 10.4196C28.8064 10.5421 28.9296 10.618 29.04 10.64L32.29 11.25C32.3233 12.4567 31.81 13.1867 30.75 13.44C30.552 13.4864 30.3737 13.5559 30.2295 13.6428C30.0853 13.7297 29.9792 13.8315 29.92 13.94C29.5333 14.6533 29.7067 15.1167 30.44 15.33C30.5451 15.3616 30.6887 15.3628 30.8601 15.3333C31.0315 15.3039 31.2264 15.2446 31.43 15.16C32.5767 14.68 33.4467 13.8933 34.04 12.8C34.2467 12.4267 34.4667 12.4467 34.7 12.86C35.12 13.5733 35.6367 14.1333 36.25 14.54C37.0833 16.2667 37 17.9067 36 19.46H32.75C32.5167 18.1467 31.8233 17.2733 30.67 16.84C30.6095 16.8175 30.5445 16.8089 30.4805 16.8149C30.4165 16.8209 30.3551 16.8413 30.3015 16.8744C30.2479 16.9076 30.2035 16.9525 30.172 17.0056C30.1404 17.0587 30.1226 17.1185 30.12 17.18C30.06 18.0333 30.3533 18.7933 31 19.46L27.46 19.55C30.0133 15.69 29.4433 12.3267 25.75 9.46L26 8.54L27.5 7.71Z" fill="#3A6BBB"/>
<path d="M10.75 9.29L9.5 9.21C7.01 7.68 12.8 7.13 10.75 9.29Z" fill="#4EBFE2" fill-opacity="0.996"/>
<path d="M9.5 9.21L10.75 9.29C11.9967 11.4233 11.33 12.7567 8.75 13.29C7.65 12.45 7.4 11.3667 8 10.04L9.5 9.21Z" fill="#513E44"/>
<path d="M25.75 9.46C29.4433 12.3267 30.0133 15.69 27.46 19.55L25.5 19.29C24.8533 19.1967 24.64 18.9467 24.86 18.54C24.9162 18.4371 25.0164 18.3377 25.1532 18.2494C25.29 18.1611 25.4599 18.0861 25.65 18.03C31.8 16.23 23.31 9.88 25.75 9.46Z" fill="#8DC1AD"/>
<path d="M16.79 10.5L17.25 11.96C15.89 12.0333 15.7367 11.5467 16.79 10.5Z" fill="#4EBFE2" fill-opacity="0.996"/>
<path d="M32.54 10.75L36.3 12.63C36.4659 12.7146 36.6369 12.7683 36.801 12.7873C36.965 12.8063 37.1183 12.7902 37.25 12.74L41.75 11.01C41.8153 10.9833 41.8857 10.9715 41.9567 10.9755C42.0276 10.9794 42.0975 10.9991 42.1617 11.0331C42.2259 11.0671 42.283 11.1147 42.3293 11.1727C42.3755 11.2308 42.4098 11.298 42.43 11.37C42.59 11.99 42.4467 12.5467 42 13.04C39.88 12.74 37.9633 13.24 36.25 14.54C35.6367 14.1333 35.12 13.5733 34.7 12.86C34.4667 12.4467 34.2467 12.4267 34.04 12.8C33.4467 13.8933 32.5767 14.68 31.43 15.16C31.2264 15.2446 31.0316 15.3039 30.8601 15.3333C30.6887 15.3628 30.5451 15.3616 30.44 15.33C29.7067 15.1167 29.5333 14.6533 29.92 13.94C29.9792 13.8315 30.0853 13.7297 30.2295 13.6428C30.3737 13.5559 30.552 13.4864 30.75 13.44C31.81 13.1867 32.3233 12.4567 32.29 11.25L32.54 10.75Z" fill="#8DC1AD"/>
<path d="M42 13.04L42.71 20.18C42.8633 21.7467 42.1033 22.16 40.43 21.42L36 19.46C37 17.9067 37.0833 16.2667 36.25 14.54C37.9633 13.24 39.88 12.74 42 13.04Z" fill="#667D8F"/>
<path d="M32.75 19.46H31C30.3533 18.7933 30.06 18.0333 30.12 17.18C30.1226 17.1185 30.1404 17.0587 30.172 17.0056C30.2035 16.9525 30.2479 16.9076 30.3015 16.8744C30.3551 16.8413 30.4165 16.8209 30.4805 16.8149C30.5446 16.8089 30.6095 16.8175 30.67 16.84C31.8233 17.2733 32.5167 18.1467 32.75 19.46Z" fill="#8DC1AD"/>
<path d="M36.75 38.21C36.3633 37.51 36.2533 36.77 36.42 35.99C36.5067 35.5967 36.5133 35.2733 36.44 35.02C36 33.4667 35.1533 32.1733 33.9 31.14C32.91 30.16 30.58 32.65 29.75 33.29H29.25C28.79 31.2167 27.5533 29.9533 25.54 29.5L24.75 29.21C24.5567 27.93 23.9733 26.8733 23 26.04C21.7333 24.0267 20.08 23.5133 18.04 24.5C17.18 23.8533 16.25 23.7833 15.25 24.29L14.5 24.54L14.21 24C13.79 17.59 28.66 23.25 30.33 27.29C30.4525 27.581 30.6891 27.8318 31 28L36.32 30.93C36.5062 31.0339 36.6873 31.1123 36.8464 31.1577C37.0055 31.2032 37.1374 31.2143 37.23 31.19L43.27 29.56C43.91 29.3867 44.0533 29.57 43.7 30.11C41.1 34.11 42.66 37.51 41.77 41.75C41.754 41.8188 41.7199 41.8818 41.6709 41.9328C41.622 41.9839 41.5598 42.0213 41.4905 42.0414C41.4211 42.0615 41.3469 42.0636 41.275 42.0476C41.2031 42.0316 41.136 41.998 41.08 41.95L36.75 38.21Z" fill="#B85232"/>
<path d="M23 26.04C23.5133 28.9867 22.77 31.25 20.77 32.83C20.05 33.4033 19.6233 33.2067 19.49 32.24C19.2433 30.4667 18.4833 28.99 17.21 27.81C17.0818 27.691 16.9231 27.6082 16.7494 27.5696C16.5757 27.531 16.3932 27.538 16.22 27.59C14.51 28.12 17.02 29.97 17.47 30.42C17.5831 30.5338 17.6556 30.6841 17.6772 30.8493C17.6987 31.0145 17.6682 31.1863 17.59 31.34C17.1833 32.1267 17.34 32.73 18.06 33.15C18.1676 33.215 18.237 33.3364 18.2537 33.489C18.2705 33.6417 18.2334 33.8139 18.15 33.97C17.6433 34.8833 16.6833 35.53 15.27 35.91C14.15 34.73 13.9767 33.19 14.75 31.29C15.0033 29.0367 14.92 26.7867 14.5 24.54L15.25 24.29C14.24 26.53 17.64 26.9 18.04 24.5C20.08 23.5133 21.7333 24.0267 23 26.04Z" fill="#E93E22"/>
<path d="M14.21 24L14.5 24.54C14.92 26.7867 15.0033 29.0367 14.75 31.29L13.6 29.05C13.38 28.61 13.2 28.33 13.06 28.21C11.5933 26.9033 10.0833 26.8467 8.53 28.04C8.43505 28.1121 8.36553 28.2319 8.33 28.3847C8.29446 28.5375 8.29446 28.7166 8.33 28.9C8.67667 30.7733 8.16333 31.0567 6.79 29.75C6.51667 28.9233 6.50333 28.1367 6.75 27.39C6.80354 27.233 6.88671 27.0908 6.99377 26.9734C7.10082 26.856 7.22919 26.7661 7.37 26.71L14.21 24Z" fill="#FEE47A"/>
<path d="M18.04 24.5C17.64 26.9 14.24 26.53 15.25 24.29C16.25 23.7833 17.18 23.8533 18.04 24.5Z" fill="#FFF30D"/>
<path d="M23 26.04C23.9733 26.8733 24.5567 27.93 24.75 29.21L22.74 34.07C22.6965 34.1725 22.6821 34.2988 22.6977 34.4391C22.7133 34.5795 22.7585 34.7303 22.83 34.88L24.16 37.62L19.68 34.49C19.6331 34.4573 19.5794 34.4356 19.523 34.4265C19.4666 34.4174 19.4088 34.4212 19.354 34.4375C19.2992 34.4539 19.2488 34.4824 19.2066 34.5209C19.1643 34.5594 19.1313 34.607 19.11 34.66C18.33 36.6533 17.05 37.07 15.27 35.91C16.6833 35.53 17.6433 34.8833 18.15 33.97C18.2334 33.8139 18.2705 33.6417 18.2537 33.489C18.237 33.3364 18.1676 33.215 18.06 33.15C17.34 32.73 17.1833 32.1267 17.59 31.34C17.6682 31.1863 17.6987 31.0145 17.6772 30.8493C17.6556 30.6841 17.5831 30.5338 17.47 30.42C17.02 29.97 14.51 28.12 16.22 27.59C16.3932 27.538 16.5757 27.531 16.7494 27.5696C16.9231 27.6082 17.0818 27.691 17.21 27.81C18.4833 28.99 19.2433 30.4667 19.49 32.24C19.6233 33.2067 20.05 33.4033 20.77 32.83C22.77 31.25 23.5133 28.9867 23 26.04Z" fill="#EBA933"/>
<path d="M14.75 31.29C13.9767 33.19 14.15 34.73 15.27 35.91C17.05 37.07 18.33 36.6533 19.11 34.66C19.1313 34.607 19.1643 34.5594 19.2066 34.5209C19.2488 34.4824 19.2992 34.4539 19.354 34.4375C19.4088 34.4212 19.4666 34.4174 19.523 34.4265C19.5794 34.4356 19.6331 34.4573 19.68 34.49L24.16 37.62C27.5667 37.26 28.7967 35.7333 27.85 33.04C27.33 31.56 26.04 31.17 25.54 29.5C27.5533 29.9533 28.79 31.2167 29.25 33.29C29.35 34.2233 29.2633 35.1167 28.99 35.97C28.8967 36.2567 28.9833 36.34 29.25 36.22C30.93 35.4667 32.0967 36.0467 32.75 37.96C30.5767 37.6533 28.4967 37.7967 26.51 38.39C24.2833 39.05 22.7533 39.3633 21.92 39.33C17.62 39.14 15.01 36.73 11.38 35.66C9.85333 35.2133 8.33 34.7467 6.81 34.26C6.68773 34.2202 6.58325 34.135 6.51407 34.0184C6.44489 33.9019 6.41521 33.7613 6.43 33.62L6.79 29.75C8.16333 31.0567 8.67666 30.7733 8.33 28.9C8.29446 28.7166 8.29446 28.5375 8.33 28.3847C8.36553 28.2319 8.43505 28.1121 8.53 28.04C10.0833 26.8467 11.5933 26.9033 13.06 28.21C13.2 28.33 13.38 28.61 13.6 29.05L14.75 31.29ZM9.78 29.2C10.63 29.18 12.81 30.3 12.91 29.83C12.9739 29.5226 12.9168 29.2026 12.7508 28.9376C12.5847 28.6726 12.3226 28.4834 12.02 28.41C9.94667 27.91 8.97333 28.0267 9.1 28.76C9.12171 28.8853 9.20228 28.9987 9.32707 29.0794C9.45186 29.1602 9.61258 29.2029 9.78 29.2Z" fill="#C6521C"/>
<path d="M12.91 29.83C12.81 30.3 10.85 30.48 10 30.5C9.83258 30.5029 9 30.2506 9 29.5C8.87521 29.4193 9.12171 28.8853 9.1 28.76C8.97333 28.0267 9.94667 27.91 12.02 28.41C12.3226 28.4834 12.5847 28.6726 12.7508 28.9376C12.9168 29.2026 12.9739 29.5226 12.91 29.83Z" fill="#FEE47A"/>
<path d="M24.75 29.21L25.54 29.5C26.04 31.17 27.33 31.56 27.85 33.04C28.7967 35.7333 27.5667 37.26 24.16 37.62L22.83 34.88C22.7585 34.7303 22.7133 34.5795 22.6977 34.4391C22.6821 34.2988 22.6965 34.1725 22.74 34.07L24.75 29.21Z" fill="#B53F31"/>
<path d="M33.9 31.14C33.59 32.66 30.48 35.71 29.75 33.29C30.58 32.65 32.91 30.16 33.9 31.14Z" fill="#DEAC07"/>
<path d="M33.9 31.14C35.1533 32.1733 36 33.4667 36.44 35.02C36.5133 35.2733 36.5067 35.5967 36.42 35.99C36.2533 36.77 36.3633 37.51 36.75 38.21L32.75 37.96C32.0967 36.0467 30.93 35.4667 29.25 36.22C28.9833 36.34 28.8967 36.2567 28.99 35.97C29.2633 35.1167 29.35 34.2233 29.25 33.29H29.75C30.48 35.71 33.59 32.66 33.9 31.14Z" fill="#B53F31"/>
</g>
<defs>
<clipPath id="clip0_1_5">
<rect width="45" height="46" fill="white"/>
</clipPath>
</defs>
</svg>
